<mxfile host="app.diagrams.net" modified="2024-03-18T03:39:30.324Z" agent="Mozilla/5.0 (Windows NT 10.0; Win64; x64) AppleWebKit/537.36 (KHTML, like Gecko) Chrome/122.0.0.0 Safari/537.36" etag="RAtJ6QmyBSETOBtniL5k" version="24.0.7" type="device">
  <diagram name="Page-1" id="Y7e5qhrBp6PYY7cBHA4k">
    <mxGraphModel dx="2112" dy="845" grid="1" gridSize="10" guides="1" tooltips="1" connect="1" arrows="1" fold="1" page="1" pageScale="1" pageWidth="850" pageHeight="1100" math="0" shadow="0">
      <root>
        <mxCell id="0" />
        <mxCell id="1" parent="0" />
        <mxCell id="k7ZABxJPNgXJGVWmZGd3-1" value="" style="rounded=0;whiteSpace=wrap;html=1;fillColor=#000000;" parent="1" vertex="1">
          <mxGeometry y="40" width="300" height="590" as="geometry" />
        </mxCell>
        <mxCell id="k7ZABxJPNgXJGVWmZGd3-5" value="Countries" style="rounded=1;whiteSpace=wrap;html=1;fontStyle=1" parent="1" vertex="1">
          <mxGeometry x="36.879999999999995" y="40" width="243.12" height="40" as="geometry" />
        </mxCell>
        <mxCell id="k7ZABxJPNgXJGVWmZGd3-8" value="&lt;b&gt;Flatlist&lt;/b&gt;" style="rounded=0;whiteSpace=wrap;html=1;" parent="1" vertex="1">
          <mxGeometry x="10" y="110" width="280" height="520" as="geometry" />
        </mxCell>
        <mxCell id="k7ZABxJPNgXJGVWmZGd3-9" value="&lt;font style=&quot;font-size: 20px;&quot;&gt;Title&lt;/font&gt;" style="text;html=1;align=center;verticalAlign=middle;whiteSpace=wrap;rounded=0;fontColor=#FFFFFF;" parent="1" vertex="1">
          <mxGeometry x="460" y="60" width="60" height="30" as="geometry" />
        </mxCell>
        <mxCell id="UOlKBu5ianpFFCgw7z5p-1" value="Country" style="rounded=0;whiteSpace=wrap;html=1;fillColor=#66FF66;" vertex="1" parent="1">
          <mxGeometry x="30" y="130" width="93.12" height="80" as="geometry" />
        </mxCell>
        <mxCell id="UOlKBu5ianpFFCgw7z5p-2" value="Country" style="rounded=0;whiteSpace=wrap;html=1;fillColor=#66FF66;" vertex="1" parent="1">
          <mxGeometry x="186.88" y="130" width="93.12" height="80" as="geometry" />
        </mxCell>
        <mxCell id="UOlKBu5ianpFFCgw7z5p-3" value="Country" style="rounded=0;whiteSpace=wrap;html=1;fillColor=#66FF66;" vertex="1" parent="1">
          <mxGeometry x="30" y="220" width="93.12" height="80" as="geometry" />
        </mxCell>
        <mxCell id="UOlKBu5ianpFFCgw7z5p-4" value="Country" style="rounded=0;whiteSpace=wrap;html=1;fillColor=#66FF66;" vertex="1" parent="1">
          <mxGeometry x="186.88" y="220" width="93.12" height="80" as="geometry" />
        </mxCell>
        <mxCell id="UOlKBu5ianpFFCgw7z5p-5" value="Country" style="rounded=0;whiteSpace=wrap;html=1;fillColor=#66FF66;" vertex="1" parent="1">
          <mxGeometry x="30" y="310" width="93.12" height="80" as="geometry" />
        </mxCell>
        <mxCell id="UOlKBu5ianpFFCgw7z5p-6" value="Country" style="rounded=0;whiteSpace=wrap;html=1;fillColor=#66FF66;" vertex="1" parent="1">
          <mxGeometry x="186.88" y="310" width="93.12" height="80" as="geometry" />
        </mxCell>
        <mxCell id="UOlKBu5ianpFFCgw7z5p-7" value="Country" style="rounded=0;whiteSpace=wrap;html=1;fillColor=#66FF66;" vertex="1" parent="1">
          <mxGeometry x="30" y="400" width="93.12" height="80" as="geometry" />
        </mxCell>
        <mxCell id="UOlKBu5ianpFFCgw7z5p-8" value="Country" style="rounded=0;whiteSpace=wrap;html=1;fillColor=#66FF66;" vertex="1" parent="1">
          <mxGeometry x="186.88" y="400" width="93.12" height="80" as="geometry" />
        </mxCell>
        <mxCell id="UOlKBu5ianpFFCgw7z5p-9" value="Country" style="rounded=0;whiteSpace=wrap;html=1;fillColor=#66FF66;" vertex="1" parent="1">
          <mxGeometry x="30" y="490" width="93.12" height="80" as="geometry" />
        </mxCell>
        <mxCell id="UOlKBu5ianpFFCgw7z5p-10" value="Country" style="rounded=0;whiteSpace=wrap;html=1;fillColor=#66FF66;" vertex="1" parent="1">
          <mxGeometry x="186.88" y="490" width="93.12" height="80" as="geometry" />
        </mxCell>
        <mxCell id="UOlKBu5ianpFFCgw7z5p-11" value="" style="rounded=0;whiteSpace=wrap;html=1;fillColor=#000000;" vertex="1" parent="1">
          <mxGeometry x="340" y="40" width="300" height="590" as="geometry" />
        </mxCell>
        <mxCell id="UOlKBu5ianpFFCgw7z5p-12" value="Country" style="rounded=1;whiteSpace=wrap;html=1;fontStyle=1" vertex="1" parent="1">
          <mxGeometry x="370.94" y="40" width="243.12" height="40" as="geometry" />
        </mxCell>
        <mxCell id="UOlKBu5ianpFFCgw7z5p-13" value="Item" style="rounded=1;whiteSpace=wrap;html=1;fontStyle=1" vertex="1" parent="1">
          <mxGeometry x="365" y="110" width="255" height="70" as="geometry" />
        </mxCell>
        <mxCell id="UOlKBu5ianpFFCgw7z5p-14" value="Item" style="rounded=1;whiteSpace=wrap;html=1;fontStyle=1" vertex="1" parent="1">
          <mxGeometry x="365" y="190" width="255" height="70" as="geometry" />
        </mxCell>
        <mxCell id="UOlKBu5ianpFFCgw7z5p-15" value="Image Modal" style="rounded=0;whiteSpace=wrap;html=1;fillColor=#67AB9F;" vertex="1" parent="1">
          <mxGeometry x="200" y="660" width="320" height="380" as="geometry" />
        </mxCell>
        <mxCell id="UOlKBu5ianpFFCgw7z5p-17" value="Return to Destinations" style="rounded=1;whiteSpace=wrap;html=1;" vertex="1" parent="1">
          <mxGeometry x="290" y="950" width="120" height="60" as="geometry" />
        </mxCell>
      </root>
    </mxGraphModel>
  </diagram>
</mxfile>
